<mxfile host="app.diagrams.net" modified="2023-12-21T02:11:47.253Z" agent="Mozilla/5.0 (Windows NT 10.0; Win64; x64) AppleWebKit/537.36 (KHTML, like Gecko) Chrome/78.0.3904.108 Safari/537.36" version="22.1.11" etag="Movghm6wWGQnkZo24Mpq" type="github">
  <diagram name="第 1 页" id="Z6cnppAG8PjRSWGhrpIC">
    <mxGraphModel>
      <root>
        <mxCell id="0" />
        <mxCell id="1" parent="0" />
      </root>
    </mxGraphModel>
  </diagram>
</mxfile>
